<svg width="26" height="28" viewBox="0 0 26 28" fill="none" xmlns="http://www.w3.org/2000/svg">
<g clip-path="url(#clip0_450_469)">
<path d="M13.4374 5.13794H11.8537V14.5381L17.5755 17.4381L18.2553 15.9127L13.4374 13.4708V5.13794Z" fill="#464340"/>
<path d="M12.6696 0.942261C6.10974 0.942261 0.79187 6.61324 0.79187 13.6087C0.79187 20.6042 6.10974 26.2751 12.6696 26.2751C19.2295 26.2751 24.5474 20.6042 24.5474 13.6087C24.5474 6.61324 19.2295 0.942261 12.6696 0.942261ZM12.6696 24.5863C6.98439 24.5863 2.37557 19.6714 2.37557 13.6087C2.37557 7.54596 6.98439 2.63112 12.6696 2.63112C18.3549 2.63112 22.9637 7.54596 22.9637 13.6087C22.9637 19.6714 18.3549 24.5863 12.6696 24.5863Z" fill="#464340"/>
</g>
<defs>
<clipPath id="clip0_450_469">
<rect width="25.3392" height="27.0217" fill="white" transform="translate(0 0.0977783)"/>
</clipPath>
</defs>
</svg>
