<svg width="48" height="48" viewBox="0 0 48 48" fill="none" xmlns="http://www.w3.org/2000/svg">
<rect width="48" height="48" rx="8" fill="#F0F2F5"/>
<g clip-path="url(#clip0_445_1507)">
<path fill-rule="evenodd" clip-rule="evenodd" d="M32.7938 28.4944C32.2734 27.5981 31.5 25.0622 31.5 21.75C31.5 17.6079 28.1421 14.25 24 14.25C19.8579 14.25 16.5 17.6079 16.5 21.75C16.5 25.0631 15.7256 27.5981 15.2053 28.4944C14.9349 28.9581 14.9329 29.5311 15.2002 29.9967C15.4674 30.4623 15.9631 30.7496 16.5 30.75H20.3259C20.6827 32.4956 22.2184 33.7492 24 33.7492C25.7816 33.7492 27.3173 32.4956 27.6741 30.75H31.5C32.0367 30.7493 32.5321 30.4619 32.7991 29.9963C33.0662 29.5308 33.0641 28.958 32.7938 28.4944ZM24 32.25C23.0467 32.2497 22.1971 31.6487 21.8794 30.75H26.1206C25.8029 31.6487 24.9533 32.2497 24 32.25ZM16.5 29.25C17.2219 28.0088 18 25.1325 18 21.75C18 18.4363 20.6863 15.75 24 15.75C27.3137 15.75 30 18.4363 30 21.75C30 25.1297 30.7763 28.0059 31.5 29.25H16.5Z" fill="#121417"/>
</g>
<defs>
<clipPath id="clip0_445_1507">
<rect width="24" height="24" fill="white" transform="translate(12 12)"/>
</clipPath>
</defs>
</svg>
