<svg width="48" height="48" viewBox="0 0 48 48" fill="none" xmlns="http://www.w3.org/2000/svg">
<rect width="48" height="48" rx="8" fill="#F0F2F5"/>
<g clip-path="url(#clip0_512_2855)">
<path fill-rule="evenodd" clip-rule="evenodd" d="M35.1956 22.9688L33.8831 19.6875C33.6553 19.1194 33.1039 18.7479 32.4919 18.75H29.25V18C29.25 17.5858 28.9142 17.25 28.5 17.25H14.25C13.4216 17.25 12.75 17.9216 12.75 18.75V29.25C12.75 30.0784 13.4216 30.75 14.25 30.75H15.8438C16.1836 32.0774 17.3797 33.0059 18.75 33.0059C20.1203 33.0059 21.3164 32.0774 21.6562 30.75H26.3438C26.6836 32.0774 27.8797 33.0059 29.25 33.0059C30.6203 33.0059 31.8164 32.0774 32.1562 30.75H33.75C34.5784 30.75 35.25 30.0784 35.25 29.25V23.25C35.2503 23.1536 35.2318 23.0581 35.1956 22.9688ZM29.25 20.25H32.4919L33.3919 22.5H29.25V20.25ZM14.25 18.75H27.75V24.75H14.25V18.75ZM18.75 31.5C17.9216 31.5 17.25 30.8284 17.25 30C17.25 29.1716 17.9216 28.5 18.75 28.5C19.5784 28.5 20.25 29.1716 20.25 30C20.25 30.8284 19.5784 31.5 18.75 31.5ZM26.3438 29.25H21.6562C21.3164 27.9226 20.1203 26.9941 18.75 26.9941C17.3797 26.9941 16.1836 27.9226 15.8438 29.25H14.25V26.25H27.75V27.4041C27.0534 27.8067 26.547 28.4715 26.3438 29.25ZM29.25 31.5C28.4216 31.5 27.75 30.8284 27.75 30C27.75 29.1716 28.4216 28.5 29.25 28.5C30.0784 28.5 30.75 29.1716 30.75 30C30.75 30.8284 30.0784 31.5 29.25 31.5ZM33.75 29.25H32.1562C31.8124 27.9261 30.6179 27.0013 29.25 27V24H33.75V29.25Z" fill="#121417"/>
</g>
<defs>
<clipPath id="clip0_512_2855">
<rect width="24" height="24" fill="white" transform="translate(12 12)"/>
</clipPath>
</defs>
</svg>
